<svg width="24" height="24" viewBox="0 0 24 24" fill="none" xmlns="http://www.w3.org/2000/svg">
<path d="M11.9998 2.41531e-06C9.20186 -0.00177203 6.49124 0.974216 4.33663 2.75921C2.18202 4.54421 0.718885 7.02599 0.200203 9.77545C-0.318478 12.5249 0.139905 15.3692 1.49609 17.8165C2.85228 20.2638 5.02102 22.1603 7.62732 23.178C7.52232 22.2285 7.42632 20.769 7.66782 19.7325C7.88682 18.795 9.07482 13.767 9.07482 13.767C9.07482 13.767 8.71632 13.0485 8.71632 11.9865C8.71632 10.317 9.68381 9.072 10.8883 9.072C11.9113 9.072 12.4063 9.84 12.4063 10.7625C12.4063 11.7915 11.7508 13.3305 11.4118 14.757C11.1298 15.951 12.0118 16.926 13.1893 16.926C15.3223 16.926 16.9618 14.676 16.9618 11.43C16.9618 8.5575 14.8963 6.549 11.9488 6.549C8.53482 6.549 6.53082 9.1095 6.53082 11.7555C6.53082 12.7875 6.92832 13.893 7.42332 14.4945C7.46594 14.5398 7.49609 14.5955 7.51081 14.6559C7.52553 14.7164 7.52433 14.7796 7.50732 14.8395C7.41582 15.2175 7.21332 16.0335 7.17432 16.2C7.12182 16.419 7.00032 16.4655 6.77232 16.3605C5.27232 15.663 4.33632 13.4715 4.33632 11.7105C4.33632 7.926 7.08732 4.4505 12.2653 4.4505C16.4278 4.4505 19.6633 7.416 19.6633 11.3805C19.6633 15.516 17.0548 18.8445 13.4368 18.8445C12.2203 18.8445 11.0773 18.213 10.6858 17.466L9.93882 20.319C9.66732 21.3615 8.93532 22.668 8.44632 23.4645C10.0963 23.9747 11.8369 24.1227 13.5493 23.8984C15.2617 23.6741 16.9055 23.0829 18.3685 22.1651C19.8314 21.2472 21.079 20.0244 22.026 18.5802C22.973 17.136 23.5972 15.5044 23.8558 13.7968C24.1144 12.0893 24.0013 10.346 23.5244 8.68613C23.0475 7.02626 22.2179 5.4889 21.0923 4.17906C19.9667 2.86921 18.5717 1.81776 17.0025 1.09652C15.4332 0.375287 13.7268 0.00126345 11.9998 2.41531e-06Z" fill="#1F2937"/>
</svg>
